<svg xmlns="http://www.w3.org/2000/svg" width="32.667" height="23.139" viewBox="0 0 32.667 23.139">
  <g id="Icon_ionic-ios-shuffle" data-name="Icon ionic-ios-shuffle" transform="translate(-4.5 -8.445)">
    <path id="Path_37" data-name="Path 37" d="M33.585,22.088a1.2,1.2,0,0,0-.842-.349,1.177,1.177,0,0,0-.842.349,1.163,1.163,0,0,0-.349.842,1.214,1.214,0,0,0,.349.842l1.387,1.378H26.865L16.316,11.965l-.009-.009a1.221,1.221,0,0,0-.919-.425h-9.7a1.191,1.191,0,1,0,0,2.382h9.136l4.466,5.615-4.466,5.615H5.691a1.191,1.191,0,1,0,0,2.382h9.7a1.188,1.188,0,0,0,.91-.425l.009-.009,4.526-5.683,4.526,5.683.009.009a1.188,1.188,0,0,0,.91.425h7.18L32.071,28.9a1.149,1.149,0,0,0-.349.842,1.214,1.214,0,0,0,.349.842,1.2,1.2,0,0,0,.842.349,1.177,1.177,0,0,0,.842-.349l2.858-2.841a1.849,1.849,0,0,0,0-2.637Z" transform="translate(0 0.648)" fill="#ff6b1b"/>
    <path id="Path_38" data-name="Path 38" d="M19.82,18.253a.488.488,0,0,0,.391.179h.009a.5.5,0,0,0,.391-.187l3.224-4.024h6.448L28.9,15.6a1.149,1.149,0,0,0-.349.842,1.214,1.214,0,0,0,.349.842,1.2,1.2,0,0,0,.842.349,1.177,1.177,0,0,0,.842-.349l3.028-3.011a1.849,1.849,0,0,0,0-2.637L30.751,8.793a1.2,1.2,0,0,0-.842-.349,1.177,1.177,0,0,0-.842.349,1.163,1.163,0,0,0-.349.842,1.214,1.214,0,0,0,.349.842l1.387,1.378h-7.18a1.188,1.188,0,0,0-.91.425l-.009.009-3.428,4.27a.5.5,0,0,0,.009.647Z" transform="translate(3.004)" fill="#ff6b1b"/>
  </g>
</svg>
