<svg
      xmlns="http://www.w3.org/2000/svg"
      width="45.389"
      height="62.04"
      viewBox="0 0 45.389 62.04"
    >
      <g
        id="Group_226"
        data-name="Group 226"
        transform="translate(-294.79 -1409)"
      >
        <path
          id="Path_43"
          data-name="Path 43"
          d="M178.155,186a.4.4,0,0,1-.1.068c-2.624.808-3.8,2.517-3.514,5.215q.254,2.435.646,4.856a4.527,4.527,0,0,0,4.378,4.2v1.842a10.7,10.7,0,0,0-2.1.021,4.409,4.409,0,0,0-3.653,3.724,55.59,55.59,0,0,1-2.423,9.155,47.655,47.655,0,0,1-4.14,8.318,10.161,10.161,0,0,0-1.672,5.838,6.145,6.145,0,0,0,2.212,4.661,5.16,5.16,0,0,1,8.166-.916c.675-2.189,1.346-4.362,2.014-6.533q2.664-8.656,5.323-17.313a5.286,5.286,0,0,0-2.38-6.321.75.75,0,0,1-.323-.493c-.037-.683-.016-1.37-.016-1.981a13.861,13.861,0,0,0,1.83-1,4.348,4.348,0,0,0,1.669-4.237c-.2-1.659-.42-3.318-.67-4.972a4.4,4.4,0,0,0-3.588-4.039c-.032,0-.055-.055-.082-.082Z"
          transform="translate(156.059 1223)"
          fill="#006663"
        />
        <path
          id="Path_44"
          data-name="Path 44"
          d="M264.537,551.311a9.046,9.046,0,0,0,.947-.485,3.025,3.025,0,0,0,1.32-3.116H236.348a2.935,2.935,0,0,0,1.719,3.368c.183.076.36.162.541.239Z"
          transform="translate(61.922 919.723)"
          fill="#006663"
        />
        <path
          id="Path_45"
          data-name="Path 45"
          d="M270.331,468.5v-1.99c-.494-.057-.992-.081-1.477-.174a4.95,4.95,0,0,1-3.877-5.9.806.806,0,0,0-.246-.835,15.622,15.622,0,0,1-1.59-2.035.948.948,0,0,0-.712-.53q-3.8-.5-7.609-1.006c-3.2-.425-6.388-.867-9.586-1.273a18.342,18.342,0,0,0-3.661-.3,5.471,5.471,0,0,0-5.115,5.147,10.661,10.661,0,0,0,.588,5.237,10.35,10.35,0,0,0,1.228,2.136,3.634,3.634,0,0,0,3.184,1.56c9.383-.073,18.768-.037,28.153-.037Z"
          transform="translate(58.41 997.931)"
          fill="#006663"
        />
        <path
          id="Path_46"
          data-name="Path 46"
          d="M222.44,476.607a4.019,4.019,0,1,0-1.148,2.866,4.048,4.048,0,0,0,1.148-2.866Z"
          transform="translate(109.857 982.716)"
          fill="#006663"
        />
        <text
          id="_01"
          data-name="01"
          transform="translate(298 1439)"
          fill="#006663"
          font-size="24"
          font-family="Poppins-Regular, Poppins"
        >
          <tspan x="0" y="0">
            {seatNumber}
          </tspan>
        </text>
      </g>
    </svg>